<svg width="100%" height="100%" viewBox="0 0 1164 400" version="1.1" xmlns="http://www.w3.org/2000/svg" xmlns:xlink="http://www.w3.org/1999/xlink" xml:space="preserve" xmlns:serif="http://www.serif.com/" style="fill-rule:evenodd;clip-rule:evenodd;stroke-linejoin:round;stroke-miterlimit:2;"><rect id="Imba.io" x="0.658" y="0" width="1163" height="400" style="fill:none;"/><g><g><g><path d="M410.808,338.269c-3.618,0 -6.551,-2.932 -6.551,-6.55c0,-28.694 0,-143.145 0,-171.839c0,-3.618 2.933,-6.55 6.551,-6.55c10.587,-0 31.341,-0 41.928,-0c3.618,-0 6.55,2.932 6.551,6.55c-0,28.694 -0,143.145 -0,171.839c-0.001,3.618 -2.933,6.55 -6.551,6.55c-10.587,0 -31.341,0 -41.928,0Z" style="fill:#273240;fill-rule:nonzero;"/><ellipse cx="431.598" cy="87.156" rx="32.391" ry="31.346" style="fill:#273240;"/></g><path d="M696.469,147.409c14.628,-0 26.353,4.934 35.177,14.802c8.823,9.868 13.234,23.509 13.234,40.923c0,0.059 0,101.55 0,128.585c0,1.737 -0.69,3.403 -1.918,4.632c-1.229,1.228 -2.895,1.918 -4.632,1.918c-10.587,0 -31.341,0 -41.928,0c-1.738,0 -3.404,-0.69 -4.632,-1.918c-1.229,-1.229 -1.919,-2.895 -1.919,-4.632c0,-25.817 0,-119.126 0,-119.181c0,-16.485 -5.224,-24.728 -15.672,-24.728c-5.805,0 -10.913,1.974 -15.325,5.921c-2.287,2.046 -4.543,4.654 -6.768,7.824c-3.831,5.193 -5.898,11.476 -5.898,17.929c-0.221,22.92 -0.221,90.816 -0.221,112.235c0,1.737 -0.69,3.403 -1.918,4.632c-1.229,1.228 -2.895,1.918 -4.632,1.918c-10.587,0 -31.341,0 -41.928,0c-1.738,0 -3.404,-0.69 -4.632,-1.918c-1.229,-1.229 -1.919,-2.895 -1.919,-4.632c0,-25.817 0,-119.126 0,-119.181c0,-16.485 -5.224,-24.728 -15.672,-24.728c-5.573,0 -10.623,2.032 -15.151,6.095c-2.67,2.396 -5.279,5.458 -7.828,9.187c-3.292,4.656 -5.06,10.219 -5.06,15.921c-0.173,22.446 -0.173,91.138 -0.173,112.706c0,1.737 -0.69,3.403 -1.918,4.632c-1.229,1.228 -2.895,1.918 -4.632,1.918c-10.587,0 -31.341,0 -41.928,0c-3.618,0 -6.551,-2.932 -6.551,-6.55c0,-28.694 0,-143.145 0,-171.839c0,-3.618 2.933,-6.55 6.551,-6.55c9.547,-0 27.113,-0 36.022,-0c3.176,-0 5.895,2.278 6.45,5.406c0.448,2.526 0.99,5.582 1.482,8.355c0.25,1.4 1.273,2.537 2.638,2.934c1.366,0.397 2.839,-0.016 3.8,-1.064c5.811,-6.348 12.085,-11.264 18.809,-14.761c8.708,-4.527 18.634,-6.791 29.779,-6.791c10.216,-0 19.097,2.554 26.644,7.662c4.629,3.134 9.936,10.55 13.347,15.815c0.911,1.316 2.356,2.163 3.95,2.314c1.594,0.151 3.173,-0.41 4.315,-1.532c5.347,-5.413 14.008,-13.767 19.834,-16.945c8.939,-4.876 19.213,-7.314 30.823,-7.314Z" style="fill:#273240;fill-rule:nonzero;"/><path d="M879.667,147.409c22.522,-0 39.762,8.591 51.72,25.773c11.958,17.182 17.937,41.446 17.937,72.792c-0,19.039 -2.961,35.989 -8.881,50.849c-5.921,14.86 -14.396,26.47 -25.425,34.829c-11.029,8.359 -24.09,12.538 -39.182,12.538c-10.217,0 -19.446,-2.032 -27.689,-6.095c-4.643,-2.289 -8.863,-5.149 -12.659,-8.58c-1.633,-1.48 -3.946,-1.945 -6.024,-1.211c-2.078,0.734 -3.587,2.549 -3.928,4.726c-0.075,-0.008 -0.076,-0.004 -0.076,-0c-0.474,3.016 -3.072,5.239 -6.126,5.239c-8.978,0 -27.147,0 -36.906,0c-3.617,0 -6.55,-2.932 -6.55,-6.55c-0,-36.215 -0,-211.541 -0,-245.994c-0,-3.346 2.522,-6.155 5.849,-6.513c10.128,-1.09 30.901,-3.325 41.929,-4.511c1.848,-0.199 3.694,0.397 5.078,1.639c1.383,1.243 2.173,3.014 2.173,4.874c-0,16.827 -0,58.495 -0,79.057c0.001,1.814 1.077,3.454 2.741,4.177c1.663,0.723 3.597,0.39 4.923,-0.847c3.916,-3.649 8.454,-6.77 13.581,-9.401c8.824,-4.527 17.995,-6.791 27.515,-6.791Zm-19.504,156.728c21.361,0 32.042,-19.388 32.042,-58.163c0,-21.826 -2.554,-36.977 -7.662,-45.452c-5.108,-8.475 -12.422,-12.712 -21.942,-12.712c-7.693,0 -14.643,2.71 -20.849,8.128c-6.84,6.025 -10.759,14.699 -10.759,23.814c-0.086,14.5 -0.086,40.738 -0.086,55.477c0.002,15.709 12.536,28.549 28.241,28.928c0.337,-0.024 0.675,-0.02 1.015,-0.02Z" style="fill:#273240;fill-rule:nonzero;"/><path d="M1120.33,284.633c-0,6.966 0.987,12.074 2.96,15.325c1.242,2.045 2.966,3.768 5.172,5.17c2.416,1.577 3.481,4.575 2.6,7.323c-0.726,2.723 -1.834,6.183 -2.995,9.808c-2.184,6.819 -7.312,12.298 -13.971,14.929c-6.659,2.631 -14.147,2.136 -20.402,-1.349c-0.002,-0.004 -0.005,-0.006 -0.008,-0.008c-7.082,-3.947 -12.712,-10.332 -16.892,-19.155c-12.074,18.343 -30.649,27.514 -55.725,27.514c-18.343,0 -32.971,-5.34 -43.884,-16.021c-10.913,-10.681 -16.37,-24.612 -16.37,-41.794c0,-20.201 7.43,-35.641 22.291,-46.322c14.86,-10.681 36.337,-16.021 64.432,-16.021c0.018,-0 6.51,-0 11.861,-0c1.843,-0 3.609,-0.732 4.912,-2.035c1.303,-1.303 2.035,-3.069 2.035,-4.912c-0,-0.642 -0,-1.06 -0,-1.064c-0,-10.913 -2.322,-18.401 -6.966,-22.464c-4.644,-4.064 -12.77,-6.095 -24.38,-6.095c-6.037,-0 -13.351,0.87 -21.942,2.612c-6.675,1.353 -13.491,3.092 -20.447,5.216c-3.371,1.036 -6.957,-0.784 -8.11,-4.117c-2.316,-6.679 -6.021,-17.383 -8.341,-24.086c-1.182,-3.411 0.619,-7.135 4.026,-8.327c9.659,-3.329 19.512,-5.954 29.563,-7.868c12.19,-2.322 23.51,-3.483 33.958,-3.483c26.47,-0 45.858,5.456 58.164,16.369c12.306,10.913 18.459,27.283 18.459,49.108c-0,0.049 -0,71.699 -0,71.747Zm-83.24,20.201c6.037,-0 11.551,-1.509 16.543,-4.528c0.001,0 0.001,-0 0.001,-0c7.89,-4.771 12.712,-13.32 12.712,-22.54c-0,-5.097 -0,-11.256 -0,-15.98c-0,-4.117 -3.337,-7.453 -7.453,-7.453c-3.157,-0 -6.12,-0 -6.13,-0c-12.539,-0 -21.884,2.205 -28.037,6.617c-6.153,4.412 -9.23,11.261 -9.23,20.549c0,7.43 1.916,13.177 5.747,17.24c3.831,4.063 9.113,6.095 15.847,6.095Z" style="fill:#273240;fill-rule:nonzero;"/></g><path d="M360.039,167.628c-36.205,-68.287 -359.443,-138.06 -324.448,-92.928c34.995,45.132 190.036,107.062 199.223,108.212c-47.568,14.937 -174.53,41.73 -147.353,64.299c27.177,22.569 156.265,-2.637 156.052,-2.236c-35.746,26.937 -80.254,108.258 -35.536,90.883c70.555,-27.413 173.158,-128.44 152.062,-168.23Z" style="fill:#16cec7;"/></g></svg>